<svg xmlns="http://www.w3.org/2000/svg" viewBox="0 0 296.867 296.867"><path d="M294.053 215.719l-20.999-20.997c3.589 1.764 8.044 1.16 11.027-1.82 3.751-3.754 3.751-9.838 0-13.586l-22.16-22.157c3.761 2.778 9.082 2.475 12.488-.93 3.75-3.751 3.75-9.833 0-13.583l-21.844-21.844c3.724 2.445 8.776 2.031 12.051-1.245 3.749-3.75 3.749-9.83 0-13.581L244.58 85.939c3.513 1.526 7.748.862 10.618-2.012 3.751-3.751 3.751-9.833 0-13.58l-14.311-14.311c-.012-.016-.029-.027-.045-.041l-.051-.058c-3.752-3.748-9.828-3.748-13.584 0l-14.406 14.409c-3.749 3.745-3.749 9.829 0 13.582 2.872 2.872 7.11 3.537 10.62 2.01l-20.036 20.037c-3.749 3.751-3.749 9.831 0 13.581 3.277 3.276 8.327 3.69 12.053 1.245l-21.844 21.844a9.595 9.595 0 00-2.438 9.45l-15.022-15.019c3.763 2.775 9.082 2.475 12.489-.93 3.749-3.753 3.749-9.836 0-13.584l-21.847-21.844c3.725 2.443 8.778 2.031 12.053-1.244 3.749-3.751 3.749-9.833 0-13.581l-20.036-20.038c3.512 1.524 7.748.862 10.618-2.011 3.749-3.751 3.749-9.83 0-13.585L155.1 35.953c-.012-.017-.028-.028-.042-.042-.018-.02-.033-.041-.053-.056-3.751-3.752-9.828-3.752-13.582 0l-14.406 14.404c-3.749 3.754-3.749 9.833 0 13.584 2.87 2.873 7.106 3.536 10.616 2.012l-20.032 20.037c-3.751 3.748-3.751 9.83 0 13.581 3.272 3.275 8.323 3.688 12.052 1.244l-21.846 21.844c-3.753 3.748-3.753 9.831 0 13.584 3.405 3.404 8.727 3.705 12.485.93l-19.616 19.616-19.028-19.029c3.724 2.445 8.778 2.031 12.051-1.245a9.6 9.6 0 000-13.582l-20.036-20.034c3.515 1.523 7.748.86 10.618-2.014a9.6 9.6 0 000-13.582L69.977 72.899a.689.689 0 01-.047-.042c-.02-.016-.035-.037-.053-.055-3.751-3.752-9.83-3.752-13.584 0L41.887 87.21a9.6 9.6 0 000 13.58c2.875 2.874 7.108 3.538 10.618 2.014l-20.036 20.034c-3.749 3.751-3.749 9.831 0 13.582 3.277 3.276 8.327 3.69 12.056 1.245L22.68 159.51c-3.752 3.748-3.752 9.828 0 13.581 3.405 3.405 8.724 3.708 12.482.93l-22.155 22.16c-3.754 3.749-3.754 9.828 0 13.582 2.981 2.984 7.441 3.584 11.028 1.821L4.121 231.497C1.632 233.231 0 236.338 0 239.6c0 5.305 4.298 9.833 9.606 9.833h43.496v4.781c0 5.309 4.193 9.608 9.496 9.608 5.306 0 9.504-4.3 9.504-9.608v-4.781h43.685c.092 0 .177-.237.271-.239 2.557.074 5.13-.966 7.08-2.915 3.754-3.752 3.754-9.686 0-13.44l-20.549-20.405h35.514v41.781c0 5.309 4.196 9.608 9.499 9.608 5.306 0 9.501-4.3 9.501-9.608v-41.781h20.534l-2.599 2.398a9.704 9.704 0 00-4.121 7.939c0 5.305 4.298 9.662 9.605 9.662h43.581v21.781c0 5.309 4.197 9.608 9.498 9.608 5.305 0 9.502-4.3 9.502-9.608v-21.781h43.6c.094 0 .177-.171.271-.173 2.555.079 5.132-.929 7.082-2.876 3.749-3.752 3.749-9.914-.003-13.665z"/></svg>