<?xml version="1.0" encoding="iso-8859-1"?>
<!-- Generator: Adobe Illustrator 19.0.0, SVG Export Plug-In . SVG Version: 6.00 Build 0)  -->
<svg version="1.1" id="Layer_1" xmlns="http://www.w3.org/2000/svg" xmlns:xlink="http://www.w3.org/1999/xlink" x="0px" y="0px"
	 viewBox="0 0 512 512" style="enable-background:new 0 0 512 512;" xml:space="preserve">
<g>
	<g>
		<rect x="122.022" y="133.737" width="15.536" height="15.776"/>
	</g>
</g>
<g>
	<g>
		<rect x="145.689" y="133.737" width="15.536" height="15.776"/>
	</g>
</g>
<g>
	<g>
		<rect x="122.022" y="165.286" width="15.536" height="15.776"/>
	</g>
</g>
<g>
	<g>
		<rect x="145.689" y="165.286" width="15.536" height="15.776"/>
	</g>
</g>
<g>
	<g>
		<rect x="122.022" y="196.835" width="15.536" height="15.776"/>
	</g>
</g>
<g>
	<g>
		<rect x="145.689" y="196.835" width="15.536" height="15.776"/>
	</g>
</g>
<g>
	<g>
		<rect x="122.022" y="228.395" width="15.536" height="15.776"/>
	</g>
</g>
<g>
	<g>
		<rect x="145.689" y="228.395" width="15.536" height="15.776"/>
	</g>
</g>
<g>
	<g>
		<path d="M74.698,70.754V275.6h157.519V70.754H74.698z M169.352,260.064h-55.455V117.841h55.455V260.064z M216.68,260.064h-31.792
			V149.393h31.792V260.064z M216.68,133.857h-31.792v-31.552H98.361v157.759h-8.128V86.29H216.68V133.857z"/>
	</g>
</g>
<g>
	<g>
		<rect x="193.013" y="165.286" width="15.536" height="15.776"/>
	</g>
</g>
<g>
	<g>
		<rect x="193.013" y="196.835" width="15.536" height="15.776"/>
	</g>
</g>
<g>
	<g>
		<rect x="193.013" y="228.395" width="15.536" height="15.776"/>
	</g>
</g>
<g>
	<g>
		<rect x="248.115" y="78.641" width="134.099" height="15.536"/>
	</g>
</g>
<g>
	<g>
		<polygon points="271.656,149.633 271.656,141.625 256.12,141.625 256.12,149.633 248.112,149.633 248.112,165.169 256.12,165.169 
			256.12,173.176 271.656,173.176 271.656,165.169 279.663,165.169 279.663,149.633 		"/>
	</g>
</g>
<g>
	<g>
		<polygon points="311.095,149.633 311.095,141.625 295.559,141.625 295.559,149.633 287.552,149.633 287.552,165.169 
			295.559,165.169 295.559,173.176 311.095,173.176 311.095,165.169 319.104,165.169 319.104,149.633 		"/>
	</g>
</g>
<g>
	<g>
		<polygon points="350.536,149.633 350.536,141.625 335,141.625 335,149.633 326.992,149.633 326.992,165.169 335,165.169 
			335,173.176 350.536,173.176 350.536,165.169 358.543,165.169 358.543,149.633 		"/>
	</g>
</g>
<g>
	<g>
		<polygon points="389.976,149.633 389.976,141.625 374.439,141.625 374.439,149.633 366.432,149.633 366.432,165.169 
			374.439,165.169 374.439,173.176 389.976,173.176 389.976,165.169 397.983,165.169 397.983,149.633 		"/>
	</g>
</g>
<g>
	<g>
		<polygon points="429.415,149.633 429.415,141.625 413.879,141.625 413.879,149.633 405.871,149.633 405.871,165.169 
			413.879,165.169 413.879,173.176 429.415,173.176 429.415,165.169 437.422,165.169 437.422,149.633 		"/>
	</g>
</g>
<g>
	<g>
		<path d="M512,472.799L448.897,315.04h19.959V39.201H43.145V315.04h19.959L0,472.799H512z M58.682,299.503V54.738h394.638v244.766
			H284.827l-36.714,29.372l-36.714-29.372H58.682z M79.837,315.04h126.111l42.165,33.732l42.165-33.732h141.887l56.889,142.223
			H22.947L79.837,315.04z"/>
	</g>
</g>
<g>
	<g>
		<rect x="248.115" y="189.067" width="189.315" height="15.536"/>
	</g>
</g>
<g>
	<g>
		<rect x="248.115" y="220.626" width="189.315" height="15.536"/>
	</g>
</g>
<g>
	<g>
		<rect x="248.115" y="252.175" width="189.315" height="15.536"/>
	</g>
</g>
<g>
	<g>
		<rect x="248.115" y="110.194" width="31.551" height="15.536"/>
	</g>
</g>
<g>
	<g>
		<rect x="240.223" y="354.715" width="15.776" height="15.536"/>
	</g>
</g>
<g>
	<g>
		<rect x="106.134" y="417.824" width="15.776" height="15.536"/>
	</g>
</g>
<g>
	<g>
		<polygon points="240.344,386.152 240.344,417.823 137.681,417.823 137.681,433.359 255.88,433.359 255.88,386.152 		"/>
	</g>
</g>
<g>
</g>
<g>
</g>
<g>
</g>
<g>
</g>
<g>
</g>
<g>
</g>
<g>
</g>
<g>
</g>
<g>
</g>
<g>
</g>
<g>
</g>
<g>
</g>
<g>
</g>
<g>
</g>
<g>
</g>
</svg>
